<svg xmlns="http://www.w3.org/2000/svg" width="1080" height="1080" viewBox="0 0 1080 1080" fill="none">
  <defs>
    <linearGradient id="background" x1="80" y1="0" x2="1000" y2="1080" gradientUnits="userSpaceOnUse">
      <stop stop-color="#101D27"/>
      <stop offset="1" stop-color="#071117"/>
    </linearGradient>
    <linearGradient id="accent" x1="76" y1="58" x2="119" y2="105" gradientUnits="userSpaceOnUse">
      <stop stop-color="#5EEAD4"/>
      <stop offset="1" stop-color="#8AA7FF"/>
    </linearGradient>
    <linearGradient id="panel" x1="540" y1="557" x2="540" y2="968" gradientUnits="userSpaceOnUse">
      <stop stop-color="#14232D"/>
      <stop offset="1" stop-color="#0D1A22"/>
    </linearGradient>
    <radialGradient id="glow" cx="0" cy="0" r="1" gradientTransform="matrix(620 0 0 500 280 110)" gradientUnits="userSpaceOnUse">
      <stop stop-color="#5EEAD4" stop-opacity=".14"/>
      <stop offset="1" stop-color="#5EEAD4" stop-opacity="0"/>
    </radialGradient>
    <pattern id="grid" width="54" height="54" patternUnits="userSpaceOnUse">
      <path d="M54 0H0V54" stroke="#A3C3D0" stroke-opacity=".035"/>
    </pattern>
  </defs>
  <rect width="1080" height="1080" rx="32" fill="url(#background)"/>
  <rect width="1080" height="1080" rx="32" fill="url(#glow)"/>
  <rect width="1080" height="1080" rx="32" fill="url(#grid)"/>

  <g transform="translate(64 52)">
    <rect width="58" height="58" rx="17" fill="#0A0E1A" stroke="#40505C" stroke-width="2"/>
    <circle cx="29" cy="29" r="14" stroke="url(#accent)" stroke-width="4"/>
    <circle cx="45" cy="13" r="3.5" fill="#5EEAD4"/>
    <text x="76" y="37" fill="#EDF4F8" font-family="Arial, sans-serif" font-size="30" font-weight="800" letter-spacing="-.7">Pulse</text>
  </g>
  <g transform="translate(759 65)">
    <rect width="257" height="36" rx="18" fill="#12212A" stroke="#344854"/>
    <circle cx="18" cy="18" r="4" fill="#67E2A5"/>
    <text x="35" y="22" fill="#A2B8C3" font-family="monospace" font-size="11" letter-spacing="1.3">SOCIAL NEWS &amp; COMMUNITY</text>
  </g>
  <path d="M64 132H1016" stroke="#344854" stroke-opacity=".7"/>

  <text x="68" y="197" fill="#8FE7AB" font-family="monospace" font-size="14" letter-spacing="2.2">YOUR SIGNAL</text>
  <text x="60" y="286" fill="#EDF4F8" font-family="Arial, sans-serif" font-size="78" font-weight="750" letter-spacing="-3">What’s moving</text>
  <text x="60" y="370" fill="#8FE7AB" font-family="Arial, sans-serif" font-size="78" font-weight="750" letter-spacing="-3">the world?</text>
  <text x="68" y="418" fill="#A2B8C3" font-family="Arial, sans-serif" font-size="22">Ideas, links, and conversations worth your attention.</text>
  <g transform="translate(66 451)">
    <rect width="236" height="46" rx="13" fill="url(#accent)"/>
    <text x="21" y="30" fill="#10211D" font-family="Arial, sans-serif" font-size="16" font-weight="700">＋  Share something</text>
  </g>

  <g transform="translate(64 535)">
    <rect width="952" height="421" rx="20" fill="url(#panel)" stroke="#40525D" stroke-width="2"/>
    <text x="27" y="37" fill="#8FA4B1" font-family="monospace" font-size="12" letter-spacing="1.9">COMMUNITY FEED</text>
    <text x="27" y="72" fill="#EDF4F8" font-family="Arial, sans-serif" font-size="25" font-weight="700">Today on Pulse</text>
    <g transform="translate(700 21)">
      <rect width="224" height="34" rx="11" fill="#0E1A22" stroke="#344854"/>
      <rect x="4" y="4" width="67" height="26" rx="8" fill="#263A40"/>
      <text x="19" y="22" fill="#8FE7AB" font-family="Arial, sans-serif" font-size="12" font-weight="700">🔥 Hot</text>
      <text x="91" y="22" fill="#8FA4B1" font-family="Arial, sans-serif" font-size="12">New</text>
      <text x="158" y="22" fill="#8FA4B1" font-family="Arial, sans-serif" font-size="12">Top</text>
    </g>

    <g transform="translate(21 91)">
      <rect width="910" height="165" rx="15" fill="#111F28" stroke="#31434E"/>
      <circle cx="28" cy="27" r="12" fill="#1E3940"/>
      <circle cx="28" cy="27" r="5.5" stroke="#5EEAD4" stroke-width="2"/>
      <text x="50" y="32" fill="#92AAB6" font-family="Arial, sans-serif" font-size="12">Pulse community  ·  just now</text>
      <text x="20" y="73" fill="#EDF4F8" font-family="Arial, sans-serif" font-size="22" font-weight="700">Stories worth talking about</text>
      <text x="20" y="101" fill="#A2B8C3" font-family="Arial, sans-serif" font-size="14">Share a link, an idea, or a question with the community.</text>
      <g transform="translate(20 113)">
        <rect width="91" height="25" rx="12.5" fill="#142B32" stroke="#31505A"/>
        <text x="13" y="17" fill="#91D9D1" font-family="monospace" font-size="10">#technology</text>
        <rect x="99" width="68" height="25" rx="12.5" fill="#172B2D" stroke="#31504B"/>
        <text x="114" y="17" fill="#9DE2B4" font-family="monospace" font-size="10">#ideas</text>
      </g>
      <path d="M20 146H890" stroke="#2A3A44"/>
      <text x="20" y="161" fill="#8FA4B1" font-family="Arial, sans-serif" font-size="10">▲ 24</text>
      <text x="82" y="161" fill="#8FA4B1" font-family="Arial, sans-serif" font-size="10">8 comments</text>
      <text x="831" y="161" fill="#8FE7AB" font-family="Arial, sans-serif" font-size="10">↗ Share</text>
    </g>

    <g transform="translate(21 271)">
      <rect width="910" height="126" rx="15" fill="#111F28" stroke="#31434E"/>
      <circle cx="28" cy="27" r="12" fill="#242D45"/>
      <path d="M23 28C23 24 26 21 30 21C33 21 35 24 35 27C35 31 30 35 30 35C30 35 23 31 23 28Z" fill="none" stroke="#8AA7FF" stroke-width="1.8"/>
      <text x="50" y="32" fill="#92AAB6" font-family="Arial, sans-serif" font-size="12">From the community  ·  12 min ago</text>
      <text x="20" y="73" fill="#EDF4F8" font-family="Arial, sans-serif" font-size="21" font-weight="700">Find your next conversation</text>
      <text x="20" y="100" fill="#A2B8C3" font-family="Arial, sans-serif" font-size="14">Explore fresh topics and perspectives.</text>
      <text x="675" y="100" fill="#91D9D1" font-family="monospace" font-size="11">#community   #discover</text>
    </g>
  </g>

  <path d="M64 1000H1016" stroke="#293B45"/>
  <text x="67" y="1034" fill="#7F96A4" font-family="monospace" font-size="11" letter-spacing="1.4">PULSE  /  A SPACE FOR STORIES AND IDEAS</text>
  <text x="837" y="1034" fill="#7F96A4" font-family="Arial, sans-serif" font-size="12">Discover · Discuss · Share</text>
</svg>
