<svg xmlns="http://www.w3.org/2000/svg" width="1200" height="630" viewBox="0 0 1200 630" fill="none">
  <defs>
    <linearGradient id="background" x1="54" y1="18" x2="1150" y2="630" gradientUnits="userSpaceOnUse">
      <stop stop-color="#101D27"/>
      <stop offset="1" stop-color="#071117"/>
    </linearGradient>
    <linearGradient id="accent" x1="70" y1="51" x2="106" y2="89" gradientUnits="userSpaceOnUse">
      <stop stop-color="#5EEAD4"/>
      <stop offset="1" stop-color="#8AA7FF"/>
    </linearGradient>
    <linearGradient id="card" x1="854" y1="141" x2="854" y2="542" gradientUnits="userSpaceOnUse">
      <stop stop-color="#14232D"/>
      <stop offset="1" stop-color="#0D1A22"/>
    </linearGradient>
    <radialGradient id="glow" cx="0" cy="0" r="1" gradientTransform="matrix(570 0 0 390 220 70)" gradientUnits="userSpaceOnUse">
      <stop stop-color="#5EEAD4" stop-opacity=".14"/>
      <stop offset="1" stop-color="#5EEAD4" stop-opacity="0"/>
    </radialGradient>
    <pattern id="grid" width="48" height="48" patternUnits="userSpaceOnUse">
      <path d="M48 0H0V48" stroke="#A3C3D0" stroke-opacity=".035"/>
    </pattern>
  </defs>
  <rect width="1200" height="630" rx="28" fill="url(#background)"/>
  <rect width="1200" height="630" rx="28" fill="url(#glow)"/>
  <rect width="1200" height="630" rx="28" fill="url(#grid)"/>

  <g transform="translate(64 34)">
    <rect width="48" height="48" rx="14" fill="#0A0E1A" stroke="#40505C"/>
    <circle cx="24" cy="24" r="11" stroke="url(#accent)" stroke-width="4"/>
    <circle cx="37" cy="11" r="3" fill="#5EEAD4"/>
    <text x="61" y="32" fill="#EDF4F8" font-family="Arial, sans-serif" font-size="25" font-weight="800" letter-spacing="-.6">Pulse</text>
    <text x="132" y="31" fill="#7F96A4" font-family="monospace" font-size="9" letter-spacing="1.4">SOCIAL NEWS &amp; COMMUNITY</text>
  </g>
  <g transform="translate(908 42)">
    <rect width="228" height="30" rx="15" fill="#12212A" stroke="#344854"/>
    <circle cx="16" cy="15" r="3" fill="#67E2A5"/>
    <text x="29" y="19" fill="#A2B8C3" font-family="monospace" font-size="9" letter-spacing="1.15">DISCOVER  ·  SHARE  ·  DISCUSS</text>
  </g>
  <path d="M64 100H1136" stroke="#344854" stroke-opacity=".7"/>

  <text x="68" y="163" fill="#8FE7AB" font-family="monospace" font-size="11" letter-spacing="2.2">YOUR SIGNAL</text>
  <text x="61" y="246" fill="#EDF4F8" font-family="Arial, sans-serif" font-size="67" font-weight="750" letter-spacing="-2.6">What’s moving</text>
  <text x="61" y="316" fill="#8FE7AB" font-family="Arial, sans-serif" font-size="67" font-weight="750" letter-spacing="-2.6">the world?</text>
  <text x="68" y="366" fill="#A2B8C3" font-family="Arial, sans-serif" font-size="18">Ideas, links, and conversations</text>
  <text x="68" y="393" fill="#A2B8C3" font-family="Arial, sans-serif" font-size="18">worth your attention.</text>
  <g transform="translate(66 438)">
    <rect width="214" height="42" rx="12" fill="url(#accent)"/>
    <text x="20" y="27" fill="#10211D" font-family="Arial, sans-serif" font-size="14" font-weight="700">＋  Share something</text>
  </g>
  <g transform="translate(67 520)">
    <circle cx="5" cy="0" r="4" fill="#8FE7AB"/>
    <text x="17" y="4" fill="#91A8B3" font-family="monospace" font-size="9" letter-spacing="1.5">COMMUNITY  /  STORIES  /  DISCUSSION</text>
  </g>

  <g transform="translate(605 124)">
    <rect width="531" height="420" rx="19" fill="url(#card)" stroke="#40525D" stroke-width="1.5"/>
    <text x="25" y="34" fill="#8FA4B1" font-family="monospace" font-size="9" letter-spacing="1.7">COMMUNITY FEED</text>
    <text x="25" y="64" fill="#EDF4F8" font-family="Arial, sans-serif" font-size="21" font-weight="700">Today on Pulse</text>
    <g transform="translate(333 24)">
      <rect width="173" height="30" rx="10" fill="#0E1A22" stroke="#344854"/>
      <rect x="4" y="4" width="53" height="22" rx="7" fill="#263A40"/>
      <text x="17" y="19" fill="#8FE7AB" font-family="Arial, sans-serif" font-size="10" font-weight="700">🔥 Hot</text>
      <text x="68" y="19" fill="#8FA4B1" font-family="Arial, sans-serif" font-size="10">New</text>
      <text x="116" y="19" fill="#8FA4B1" font-family="Arial, sans-serif" font-size="10">Top</text>
    </g>

    <g transform="translate(20 82)">
      <rect width="491" height="174" rx="14" fill="#111F28" stroke="#31434E"/>
      <circle cx="25" cy="25" r="11" fill="#1E3940"/>
      <circle cx="25" cy="25" r="5" stroke="#5EEAD4" stroke-width="2"/>
      <text x="45" y="29" fill="#92AAB6" font-family="Arial, sans-serif" font-size="10">Pulse community  ·  just now</text>
      <text x="18" y="67" fill="#EDF4F8" font-family="Arial, sans-serif" font-size="19" font-weight="700">Stories worth talking about</text>
      <text x="18" y="94" fill="#A2B8C3" font-family="Arial, sans-serif" font-size="12">Share a link, an idea, or a question with the community.</text>
      <g transform="translate(18 111)">
        <rect width="79" height="23" rx="11.5" fill="#142B32" stroke="#31505A"/>
        <text x="11" y="15" fill="#91D9D1" font-family="monospace" font-size="9">#technology</text>
        <rect x="87" width="59" height="23" rx="11.5" fill="#172B2D" stroke="#31504B"/>
        <text x="100" y="15" fill="#9DE2B4" font-family="monospace" font-size="9">#ideas</text>
      </g>
      <path d="M18 145H473" stroke="#2A3A44"/>
      <text x="18" y="163" fill="#8FA4B1" font-family="Arial, sans-serif" font-size="10">▲ 24</text>
      <text x="73" y="163" fill="#8FA4B1" font-family="Arial, sans-serif" font-size="10">💬 8 comments</text>
      <text x="404" y="163" fill="#8FE7AB" font-family="Arial, sans-serif" font-size="10">↗ Share</text>
    </g>

    <g transform="translate(20 269)">
      <rect width="491" height="127" rx="14" fill="#111F28" stroke="#31434E"/>
      <circle cx="25" cy="25" r="11" fill="#242D45"/>
      <path d="M20 26C20 22 23 19 27 19C30 19 32 22 32 25C32 29 27 33 27 33C27 33 20 29 20 26Z" fill="none" stroke="#8AA7FF" stroke-width="1.5"/>
      <text x="45" y="29" fill="#92AAB6" font-family="Arial, sans-serif" font-size="10">From the community  ·  12 min ago</text>
      <text x="18" y="65" fill="#EDF4F8" font-family="Arial, sans-serif" font-size="17" font-weight="700">Find your next conversation</text>
      <text x="18" y="89" fill="#A2B8C3" font-family="Arial, sans-serif" font-size="11">Explore fresh topics and perspectives.</text>
      <text x="18" y="113" fill="#8FA4B1" font-family="monospace" font-size="9">#community    #discover    #share</text>
    </g>
  </g>
  <path d="M64 583H1136" stroke="#293B45"/>
  <text x="67" y="606" fill="#7F96A4" font-family="monospace" font-size="9" letter-spacing="1.2">PULSE  /  A SPACE FOR STORIES AND IDEAS</text>
  <text x="945" y="606" fill="#7F96A4" font-family="Arial, sans-serif" font-size="10">Discover · Discuss · Share</text>
</svg>
